<svg xmlns="http://www.w3.org/2000/svg" viewBox="0 0 140 180" width="140" height="180">
  <!-- shadow -->
  <ellipse cx="70" cy="170" rx="38" ry="6" fill="rgba(194,68,122,0.08)"/>

  <!-- dress body -->
  <path d="M46 38 L26 62 L8 58 L14 158 L126 158 L132 58 L114 62 L94 38 Z"
        fill="#FAE8F1" stroke="#E0A0BE" stroke-width="1.5" stroke-linejoin="round"/>

  <!-- sleeves highlight -->
  <path d="M46 38 L32 56 L26 62 L8 58 L14 72"
        fill="#F5D0E4" stroke="none"/>
  <path d="M94 38 L108 56 L114 62 L132 58 L126 72"
        fill="#F5D0E4" stroke="none"/>

  <!-- sleeve left -->
  <path d="M46 38 L26 62 L8 58" fill="none" stroke="#D490B0" stroke-width="1.5" stroke-linejoin="round"/>
  <!-- sleeve right -->
  <path d="M94 38 L114 62 L132 58" fill="none" stroke="#D490B0" stroke-width="1.5" stroke-linejoin="round"/>

  <!-- neckline -->
  <path d="M46 38 Q70 52 94 38" fill="none" stroke="#D490B0" stroke-width="1.5"/>

  <!-- yoke area shading -->
  <path d="M46 38 Q70 52 94 38 L114 62 L26 62 Z" fill="#F0C8DC" opacity="0.5"/>

  <!-- waist seam -->
  <line x1="14" y1="92" x2="126" y2="92" stroke="#D490B0" stroke-width="1" stroke-dasharray="5 4" opacity="0.7"/>

  <!-- skirt flare - slightly wider -->
  <path d="M14 92 Q8 120 6 158 L134 158 Q132 120 126 92 Z" fill="#F7DDE9" opacity="0.45"/>

  <!-- ribbon knot center -->
  <path d="M62 92 Q70 84 78 92 Q70 100 62 92 Z" fill="#C2447A" opacity="0.85"/>
  <path d="M62 92 Q54 84 46 92 Q54 100 62 92 Z" fill="#C2447A" opacity="0.85"/>
  <circle cx="70" cy="92" r="4" fill="#9B2A5E"/>

  <!-- small decorative flowers on skirt -->
  <circle cx="40" cy="130" r="4" fill="#E8A0BE" opacity="0.65"/>
  <circle cx="38" cy="126" r="2" fill="#F5D0E4" opacity="0.8"/>
  <circle cx="44" cy="126" r="2" fill="#F5D0E4" opacity="0.8"/>
  <circle cx="36" cy="130" r="2" fill="#F5D0E4" opacity="0.8"/>
  <circle cx="44" cy="134" r="2" fill="#F5D0E4" opacity="0.8"/>

  <circle cx="100" cy="118" r="4" fill="#E8A0BE" opacity="0.65"/>
  <circle cx="98" cy="114" r="2" fill="#F5D0E4" opacity="0.8"/>
  <circle cx="104" cy="114" r="2" fill="#F5D0E4" opacity="0.8"/>
  <circle cx="96" cy="118" r="2" fill="#F5D0E4" opacity="0.8"/>
  <circle cx="104" cy="122" r="2" fill="#F5D0E4" opacity="0.8"/>

  <circle cx="70" cy="138" r="4" fill="#E8A0BE" opacity="0.55"/>
  <circle cx="68" cy="134" r="2" fill="#F5D0E4" opacity="0.7"/>
  <circle cx="74" cy="134" r="2" fill="#F5D0E4" opacity="0.7"/>
  <circle cx="66" cy="138" r="2" fill="#F5D0E4" opacity="0.7"/>
  <circle cx="74" cy="142" r="2" fill="#F5D0E4" opacity="0.7"/>

  <!-- hem line -->
  <line x1="6" y1="158" x2="134" y2="158" stroke="#D490B0" stroke-width="1.5" opacity="0.5"/>
</svg>
